<?xml version="1.0" encoding="utf-8"?>
<!-- Generator: Adobe Illustrator 25.3.0, SVG Export Plug-In . SVG Version: 6.00 Build 0)  -->
<svg version="1.1" id="Capa_1" xmlns="http://www.w3.org/2000/svg" xmlns:xlink="http://www.w3.org/1999/xlink" x="0px" y="0px"
	 viewBox="0 0 304.66 273.55" style="enable-background:new 0 0 304.66 273.55;" xml:space="preserve">
<style type="text/css">
	.st0{fill:#FFFFFF;}
</style>
<g>
	<path class="st0" d="M304.66,91.22c-13.14,40.97-25.97,80.96-38.9,121.24c-55.66,0-111.4,0-167.55,0
		c-2.52-10.42-5.1-20.87-7.58-31.35c-10.24-43.3-20.46-86.6-30.67-129.9c-1.98-8.4-4.1-16.77-5.8-25.23
		c-0.86-4.25-2.52-5.99-7.2-5.84c-12.15,0.37-24.32,0.14-36.48,0.09c-4.12-0.02-7.5-1.54-9.29-5.5C-0.51,10.93-0.66,6.86,2.5,4.09
		c2.31-2.02,5.75-3.76,8.73-3.83c16.15-0.36,32.31-0.3,48.47-0.1c6.82,0.09,10.12,3.15,11.57,9.49
		C77.07,35.06,83.01,60.45,88.6,85.9c0.94,4.3,2.71,5.41,6.94,5.41c67.46-0.13,134.93-0.09,202.39-0.09
		C299.9,91.22,301.86,91.22,304.66,91.22z"/>
	<path class="st0" d="M242.79,273.54c-11.15-0.15-20.4-9.68-20.06-20.68c0.33-11.03,9.51-19.96,20.4-19.84
		c11.09,0.11,20.35,9.65,20.08,20.68C262.94,264.63,253.62,273.69,242.79,273.54z"/>
	<path class="st0" d="M131.41,253.43c-0.05,11.06-8.95,20.03-19.97,20.12c-11.16,0.09-20.22-9.08-20.18-20.4
		c0.04-11.03,8.99-20.04,19.97-20.12C122.36,232.94,131.46,242.14,131.41,253.43z"/>
</g>
</svg>
