<?xml version="1.0" encoding="utf-8"?>
<!-- Generator: Adobe Illustrator 25.3.0, SVG Export Plug-In . SVG Version: 6.00 Build 0)  -->
<svg version="1.1" id="Capa_1" xmlns="http://www.w3.org/2000/svg" xmlns:xlink="http://www.w3.org/1999/xlink" x="0px" y="0px"
	 viewBox="0 0 126.87 45.52" style="enable-background:new 0 0 126.87 45.52;" xml:space="preserve">
<style type="text/css">
	.st0{fill:#FFFFFF;}
</style>
<g>
	<g>
		<path class="st0" d="M38.51,3.3c-2.17,0.76-3.82,1.97-4.95,3.61c-1.13,1.64-1.7,3.62-1.7,5.95c0,1.02,0.11,1.95,0.33,2.8
			c0.22,0.84,0.54,1.54,0.96,2.08c-2.04,0-3.54-0.42-4.52-1.27c-0.97-0.84-1.46-2.14-1.46-3.89c0-2.23,0.65-4.31,1.96-6.24
			c1.31-1.93,3.07-3.46,5.3-4.61C36.68,0.57,39.1,0,41.71,0c0.73,0,1.37,0.05,1.91,0.14c0.54,0.1,1.16,0.27,1.86,0.53l5.73,25.57
			l5.35-25.95h4.64l-7.79,35.74h-6.59l-5.54-23.7l-5.45,23.7H31.3L38.51,3.3z"/>
		<path class="st0" d="M60.21,34.41c-1.37-1.21-2.06-3.12-2.06-5.73c0-2.17,0.45-4.57,1.34-7.22c0.89-2.64,2.33-4.93,4.3-6.86
			c1.97-1.93,4.46-2.89,7.45-2.89c4.08,0,6.12,2.55,6.12,7.65v0.05c0.1,0.03,0.27,0.05,0.53,0.05c1.05,0,2.26-0.28,3.63-0.84
			c1.37-0.56,2.61-1.23,3.73-2.03l0.43,1.29c-0.92,0.99-2.13,1.82-3.61,2.51c-1.48,0.69-3.1,1.17-4.85,1.46
			c-0.26,2.9-0.91,5.43-1.96,7.6c-1.05,2.17-2.41,3.84-4.06,5.02c-1.66,1.18-3.46,1.77-5.4,1.77
			C63.44,36.22,61.58,35.62,60.21,34.41z M70,30.61c0.76-0.88,1.43-2.07,2.01-3.58c0.57-1.51,0.99-3.19,1.24-5.04
			c-0.86-0.19-1.29-0.86-1.29-2.01c0-1.31,0.49-2.17,1.48-2.58c-0.06-1.05-0.22-1.78-0.48-2.17c-0.26-0.4-0.7-0.6-1.34-0.6
			c-1.05,0-2.07,0.76-3.06,2.29c-0.99,1.53-1.78,3.36-2.39,5.5c-0.61,2.13-0.91,4.01-0.91,5.64c0,1.53,0.17,2.56,0.53,3.08
			c0.35,0.53,0.99,0.79,1.91,0.79C68.47,31.92,69.24,31.48,70,30.61z"/>
		<path class="st0" d="M92.77,34.76c-0.91-1.03-1.36-2.32-1.36-3.85c0-0.67,0.08-1.43,0.24-2.27c0.16-0.84,0.33-1.66,0.5-2.46
			c0.17-0.8,0.29-1.31,0.36-1.53c0.25-1.11,0.49-2.21,0.72-3.3c0.22-1.08,0.33-1.96,0.33-2.63c0-1.62-0.57-2.44-1.72-2.44
			c-0.83,0-1.56,0.41-2.2,1.22c-0.64,0.81-1.15,1.87-1.53,3.18l-3.25,15.34h-6.88l5.07-23.89h6.88l-0.53,2.49
			c1.59-1.78,3.46-2.68,5.59-2.68c1.62,0,2.91,0.45,3.87,1.34c0.96,0.89,1.43,2.25,1.43,4.06c0,0.92-0.11,1.95-0.33,3.08
			c-0.22,1.13-0.54,2.51-0.96,4.13c-0.26,0.99-0.49,1.95-0.69,2.89c-0.21,0.94-0.31,1.68-0.31,2.22c0,0.64,0.14,1.13,0.43,1.48
			c0.29,0.35,0.78,0.53,1.48,0.53c0.96,0,1.72-0.34,2.29-1.03c0.57-0.68,1.15-1.74,1.72-3.18h2.01c-1.18,3.51-2.54,5.85-4.09,7.05
			c-1.55,1.19-3.15,1.79-4.8,1.79C95.11,36.32,93.68,35.8,92.77,34.76z"/>
		<path class="st0" d="M105.13,34.45c-1.21-1.24-1.82-3.19-1.82-5.83c0-2.36,0.47-4.83,1.41-7.43c0.94-2.6,2.34-4.79,4.21-6.59
			c1.86-1.8,4.09-2.7,6.67-2.7c1.31,0,2.28,0.22,2.91,0.67c0.64,0.45,0.96,1.04,0.96,1.77v0.33l0.53-2.53h6.88l-3.44,16.25
			c-0.13,0.48-0.19,0.99-0.19,1.53c0,0.64,0.15,1.09,0.45,1.36c0.3,0.27,0.8,0.41,1.51,0.41c0.45,0,0.8-0.06,1.05-0.19
			c-0.7,1.78-1.37,3.03-2.01,3.75c-0.64,0.72-1.56,1.08-2.77,1.08c-1.31,0-2.37-0.39-3.18-1.17c-0.81-0.78-1.31-1.87-1.51-3.27
			c-1.94,2.96-4.32,4.44-7.12,4.44C107.85,36.32,106.34,35.7,105.13,34.45z M115.14,30.56c0.78-0.75,1.31-1.78,1.6-3.08l2.29-10.8
			c0-0.41-0.16-0.82-0.48-1.22c-0.32-0.4-0.81-0.6-1.48-0.6c-1.27,0-2.42,0.74-3.44,2.22c-1.02,1.48-1.82,3.27-2.39,5.35
			c-0.57,2.09-0.86,3.93-0.86,5.52c0,1.59,0.23,2.61,0.69,3.06c0.46,0.45,1.03,0.67,1.7,0.67
			C113.57,31.68,114.36,31.31,115.14,30.56z"/>
	</g>
	<g>
		<path class="st0" d="M29.64,43.89c-0.14,0.11-0.3,0.21-0.46,0.29c-0.17,0.08-0.35,0.14-0.55,0.18c-0.2,0.04-0.42,0.06-0.67,0.06
			c-0.37,0-0.72-0.07-1.04-0.2c-0.32-0.14-0.6-0.32-0.83-0.56c-0.23-0.24-0.42-0.51-0.55-0.83c-0.13-0.32-0.2-0.66-0.2-1.03v-0.01
			c0-0.36,0.07-0.71,0.2-1.02c0.13-0.32,0.31-0.6,0.55-0.84c0.23-0.24,0.51-0.43,0.84-0.57c0.33-0.14,0.68-0.21,1.08-0.21
			c0.24,0,0.46,0.02,0.65,0.06c0.2,0.04,0.38,0.09,0.54,0.16c0.16,0.07,0.31,0.15,0.44,0.25c0.14,0.1,0.26,0.2,0.38,0.32l-0.71,0.82
			c-0.2-0.18-0.4-0.32-0.61-0.42c-0.21-0.1-0.44-0.15-0.7-0.15c-0.21,0-0.41,0.04-0.59,0.12c-0.18,0.08-0.34,0.2-0.47,0.34
			c-0.13,0.15-0.23,0.31-0.31,0.51s-0.11,0.4-0.11,0.62v0.01c0,0.22,0.04,0.43,0.11,0.62c0.07,0.19,0.17,0.36,0.3,0.51
			c0.13,0.15,0.28,0.26,0.47,0.35c0.18,0.09,0.38,0.13,0.6,0.13c0.29,0,0.54-0.05,0.74-0.16c0.2-0.11,0.4-0.25,0.6-0.44l0.71,0.72
			C29.92,43.65,29.78,43.78,29.64,43.89z"/>
		<path class="st0" d="M31.23,44.33v-5.1h3.84v1h-2.73v1.03h2.4v1h-2.4v1.07h2.77v1H31.23z"/>
		<path class="st0" d="M39.5,44.33l-1.09-1.63h-0.88v1.63h-1.12v-5.1h2.33c0.61,0,1.08,0.15,1.42,0.44s0.51,0.71,0.51,1.24v0.01
			c0,0.41-0.1,0.75-0.3,1.01c-0.2,0.26-0.46,0.45-0.79,0.57l1.25,1.82H39.5z M39.53,40.97c0-0.24-0.08-0.43-0.23-0.55
			c-0.16-0.12-0.37-0.18-0.65-0.18h-1.12v1.47h1.14c0.28,0,0.49-0.07,0.64-0.2c0.15-0.13,0.22-0.31,0.22-0.52V40.97z"/>
		<path class="st0" d="M41.97,44.33v-5.1h3.84v1h-2.73v1.03h2.4v1h-2.4v1.07h2.77v1H41.97z"/>
		<path class="st0" d="M50.94,44.33l-0.47-1.14h-2.16l-0.47,1.14H46.7l2.19-5.14h1.03l2.19,5.14H50.94z M49.39,40.54l-0.68,1.65
			h1.36L49.39,40.54z"/>
		<path class="st0" d="M53.19,44.33v-5.1h1.12v4.09h2.54v1.01H53.19z"/>
		<path class="st0" d="M57.99,44.33v-5.1h3.84v1H59.1v1.03h2.4v1h-2.4v1.07h2.77v1H57.99z"/>
		<path class="st0" d="M66.26,44.33l-1.09-1.63h-0.88v1.63h-1.12v-5.1h2.33c0.61,0,1.08,0.15,1.42,0.44
			c0.34,0.3,0.51,0.71,0.51,1.24v0.01c0,0.41-0.1,0.75-0.3,1.01s-0.46,0.45-0.79,0.57l1.25,1.82H66.26z M66.28,40.97
			c0-0.24-0.08-0.43-0.23-0.55c-0.16-0.12-0.37-0.18-0.65-0.18h-1.12v1.47h1.14c0.28,0,0.49-0.07,0.64-0.2
			c0.15-0.13,0.22-0.31,0.22-0.52V40.97z"/>
		<path class="st0" d="M72.52,44.33l-0.47-1.14H69.9l-0.47,1.14h-1.14l2.19-5.14h1.03l2.19,5.14H72.52z M70.97,40.54L70.3,42.2h1.36
			L70.97,40.54z"/>
		<path class="st0" d="M79.35,44.43c-0.07,0.2-0.15,0.37-0.23,0.51c-0.08,0.14-0.17,0.25-0.27,0.34c-0.1,0.09-0.21,0.15-0.34,0.19
			c-0.13,0.04-0.27,0.06-0.44,0.06c-0.2,0-0.38-0.02-0.54-0.07c-0.16-0.05-0.3-0.11-0.44-0.2l0.37-0.8
			c0.07,0.04,0.15,0.08,0.24,0.11c0.08,0.03,0.16,0.04,0.24,0.04c0.1,0,0.17-0.02,0.23-0.05c0.06-0.04,0.11-0.1,0.16-0.2l-1.53-3.92
			h1.17l0.89,2.66l0.85-2.66h1.15L79.35,44.43z"/>
		<path class="st0" d="M88.89,42.79c-0.13,0.31-0.32,0.58-0.56,0.81c-0.24,0.23-0.53,0.41-0.86,0.54c-0.33,0.13-0.7,0.2-1.1,0.2
			h-1.99v-5.1h1.99c0.4,0,0.76,0.06,1.1,0.19c0.33,0.13,0.62,0.31,0.86,0.54c0.24,0.23,0.43,0.5,0.56,0.81c0.13,0.31,0.2,0.64,0.2,1
			v0.01C89.09,42.14,89.02,42.48,88.89,42.79z M87.91,41.78c0-0.22-0.04-0.43-0.11-0.62c-0.08-0.19-0.18-0.35-0.31-0.49
			c-0.13-0.14-0.3-0.24-0.48-0.32c-0.19-0.08-0.4-0.11-0.63-0.11h-0.87v3.08h0.87c0.23,0,0.44-0.04,0.63-0.11s0.35-0.18,0.48-0.31
			c0.13-0.14,0.24-0.3,0.31-0.48c0.07-0.18,0.11-0.39,0.11-0.62V41.78z"/>
		<path class="st0" d="M90.43,44.33v-5.1h1.12v5.1H90.43z"/>
		<path class="st0" d="M93.12,44.33v-5.1h3.84v1h-2.73v1.03h2.4v1h-2.4v1.07h2.77v1H93.12z"/>
		<path class="st0" d="M100.6,40.27v4.07h-1.12v-4.07h-1.55v-1.04h4.23v1.04H100.6z"/>
		<path class="st0" d="M103.3,44.33v-5.1h3.84v1h-2.73v1.03h2.4v1h-2.4v1.07h2.77v1H103.3z M104.61,38.83l0.82-1.29l0.96,0.42
			l-0.93,0.87H104.61z"/>
		<path class="st0" d="M110.79,40.27v4.07h-1.12v-4.07h-1.55v-1.04h4.23v1.04H110.79z"/>
		<path class="st0" d="M113.54,44.33v-5.1h1.12v5.1H113.54z"/>
		<path class="st0" d="M120.3,43.89c-0.14,0.11-0.3,0.21-0.46,0.29c-0.17,0.08-0.35,0.14-0.55,0.18c-0.2,0.04-0.42,0.06-0.67,0.06
			c-0.37,0-0.72-0.07-1.04-0.2c-0.32-0.14-0.6-0.32-0.83-0.56c-0.23-0.24-0.42-0.51-0.55-0.83c-0.13-0.32-0.2-0.66-0.2-1.03v-0.01
			c0-0.36,0.07-0.71,0.2-1.02c0.13-0.32,0.31-0.6,0.55-0.84c0.23-0.24,0.51-0.43,0.84-0.57c0.33-0.14,0.68-0.21,1.08-0.21
			c0.24,0,0.46,0.02,0.65,0.06c0.2,0.04,0.38,0.09,0.54,0.16c0.16,0.07,0.31,0.15,0.44,0.25c0.14,0.1,0.26,0.2,0.38,0.32l-0.71,0.82
			c-0.2-0.18-0.4-0.32-0.61-0.42c-0.21-0.1-0.44-0.15-0.7-0.15c-0.21,0-0.41,0.04-0.59,0.12c-0.18,0.08-0.34,0.2-0.47,0.34
			c-0.13,0.15-0.23,0.31-0.31,0.51c-0.07,0.19-0.11,0.4-0.11,0.62v0.01c0,0.22,0.04,0.43,0.11,0.62c0.07,0.19,0.17,0.36,0.3,0.51
			c0.13,0.15,0.28,0.26,0.47,0.35c0.18,0.09,0.38,0.13,0.6,0.13c0.29,0,0.54-0.05,0.74-0.16c0.2-0.11,0.4-0.25,0.6-0.44l0.71,0.72
			C120.58,43.65,120.44,43.78,120.3,43.89z"/>
		<path class="st0" d="M125.69,44.33l-0.47-1.14h-2.16l-0.47,1.14h-1.14l2.19-5.14h1.03l2.19,5.14H125.69z M124.15,40.54l-0.68,1.65
			h1.36L124.15,40.54z"/>
	</g>
	<g>
		<path class="st0" d="M15.62,43.5c-0.98-0.57-2.21-1.45-3.72-2.64c-1.12-0.9-2.08-1.62-2.87-2.17c-0.8-0.55-1.66-1.01-2.59-1.4
			c-0.93-0.38-1.88-0.57-2.84-0.57c-0.34,0-0.59,0.01-0.77,0.03l5.01-23.3c-1.5,0.61-2.66,1.53-3.48,2.77
			C3.54,17.48,3.13,19,3.13,20.79c0,0.83,0.08,1.41,0.24,1.73c0.16,0.33,0.24,0.51,0.24,0.55c-1.21,0-2.11-0.25-2.71-0.76
			C0.3,21.82,0,20.98,0,19.82c0-1.43,0.59-2.83,1.77-4.19c1.18-1.36,2.68-2.45,4.52-3.29c1.84-0.84,3.68-1.26,5.51-1.26
			c0.31,0,0.76,0.02,1.34,0.07L7.97,35.28c0.63,0.16,1.27,0.39,1.93,0.69c0.66,0.3,1.46,0.71,2.4,1.23c1.46,0.78,2.7,1.38,3.73,1.8
			c1.03,0.41,2.11,0.62,3.23,0.62c1.01,0,1.95-0.18,2.82-0.54c-0.18,1.64-0.58,2.93-1.19,3.87c-0.62,0.94-1.38,1.41-2.3,1.41
			C17.58,44.36,16.59,44.07,15.62,43.5z"/>
		<path class="st0" d="M13.38,34.84c-0.85-0.87-1.28-2.24-1.28-4.1c0-1.66,0.33-3.4,0.99-5.23c0.66-1.83,1.65-3.37,2.96-4.64
			c1.31-1.27,2.87-1.9,4.69-1.9c0.92,0,1.6,0.16,2.05,0.47c0.45,0.31,0.67,0.73,0.67,1.24v0.24l0.37-1.78h4.84l-2.42,11.43
			c-0.09,0.34-0.13,0.69-0.13,1.08c0,0.45,0.11,0.77,0.32,0.96c0.21,0.19,0.57,0.29,1.06,0.29c0.31,0,0.56-0.04,0.74-0.13
			c-0.49,1.26-0.96,2.13-1.41,2.64c-0.45,0.5-1.1,0.76-1.95,0.76c-0.92,0-1.66-0.27-2.24-0.82c-0.57-0.55-0.92-1.32-1.06-2.3
			c-1.37,2.08-3.04,3.13-5.01,3.13C15.3,36.16,14.23,35.72,13.38,34.84z M20.42,32.1c0.55-0.53,0.92-1.25,1.13-2.17l1.61-7.6
			c0-0.29-0.11-0.58-0.34-0.86c-0.22-0.28-0.57-0.42-1.04-0.42c-0.9,0-1.7,0.52-2.42,1.56c-0.72,1.04-1.28,2.3-1.68,3.77
			c-0.4,1.47-0.61,2.76-0.61,3.88c0,1.12,0.16,1.84,0.49,2.15c0.32,0.31,0.72,0.47,1.19,0.47C19.32,32.89,19.87,32.63,20.42,32.1z"
			/>
	</g>
</g>
</svg>
